<svg xmlns="http://www.w3.org/2000/svg" viewBox="0 0 423.32 81.48"><defs><style>.cls-1{fill:#49bfc7;}</style></defs><g id="Layer_2" data-name="Layer 2"><g id="Layer_1-2" data-name="Layer 1"><path class="cls-1" d="M138.85,39.86A6.28,6.28,0,0,1,136.74,35a6.31,6.31,0,0,1,2.39-5.38,12.84,12.84,0,0,1,5.69-2.33,82.79,82.79,0,0,1,8.54-.83V22A5.91,5.91,0,0,0,152,17.74a6,6,0,0,0-4.47-1.45,4.66,4.66,0,0,0-3.07,1.08,3.57,3.57,0,0,0-1.31,2.91,2.56,2.56,0,0,0,.42,1.51,5.17,5.17,0,0,0,.91,1c.33.27.49.42.49.46,0,.23-.24.52-.71.88a2.82,2.82,0,0,1-1.74.54,3.27,3.27,0,0,1-2.7-1.25,4.59,4.59,0,0,1-1-3,4.67,4.67,0,0,1,2.65-4.39,13.45,13.45,0,0,1,6.4-1.42,14.54,14.54,0,0,1,7.6,1.77c2,1.17,2.93,3.36,2.93,6.54V36.22a4.61,4.61,0,0,0,.75,2.28,2.42,2.42,0,0,0,2.22,1.08,1,1,0,0,1,.65.17,1,1,0,0,1,.2.74c0,.45-.35.79-1.05,1a7.66,7.66,0,0,1-2.08.31,6.19,6.19,0,0,1-3.82-1.25,4.72,4.72,0,0,1-1.88-3.36,7.87,7.87,0,0,1-3.67,3.41,12,12,0,0,1-5.32,1.2A7.83,7.83,0,0,1,138.85,39.86Zm10.93-2.1a7.24,7.24,0,0,0,2.62-2.65,7.38,7.38,0,0,0,1-3.73V28.13c-4,.31-6.79.95-8.42,1.94a5.17,5.17,0,0,0-2.45,4.78q0,3.87,3.7,3.87A7,7,0,0,0,149.78,37.76Z"/><path class="cls-1" d="M160,41.33a1.26,1.26,0,0,1-.25-.79c0-.5.14-.79.31-.88a2.21,2.21,0,0,1,1-.15,3.35,3.35,0,0,0,2.1-.51,1.9,1.9,0,0,0,.74-1.2,13.74,13.74,0,0,0,.12-2.16V7.86A18.58,18.58,0,0,0,164,5.69a1.78,1.78,0,0,0-.71-1.19A3.38,3.38,0,0,0,161.14,4a2.11,2.11,0,0,1-1-.2c-.23-.14-.34-.45-.34-.94a1.11,1.11,0,0,1,.22-.66,1,1,0,0,1,.69-.37A28.91,28.91,0,0,0,166.84.34,6,6,0,0,1,168.15,0h.17c.6,0,.91.36.91,1.08V35.64a15.48,15.48,0,0,0,.11,2.16,1.94,1.94,0,0,0,.74,1.2,3.38,3.38,0,0,0,2.11.51h.34a1.15,1.15,0,0,1,.68.17c.16.12.25.4.29.86a1.39,1.39,0,0,1-.23.79.76.76,0,0,1-.68.35c-2.2-.12-4.2-.17-6-.17s-3.68.05-5.92.17A.79.79,0,0,1,160,41.33Z"/><path class="cls-1" d="M172.39,41.33a1.27,1.27,0,0,1-.26-.79c0-.5.15-.79.34-.88a2.43,2.43,0,0,1,1-.15,3.37,3.37,0,0,0,2.1-.51,1.78,1.78,0,0,0,.71-1.2,18.26,18.26,0,0,0,.09-2.16v-13a18.49,18.49,0,0,0-.09-2.16,1.8,1.8,0,0,0-.71-1.2,3.37,3.37,0,0,0-2.1-.51,2,2,0,0,1-1-.2c-.23-.13-.34-.44-.34-.94a1.12,1.12,0,0,1,.23-.65.94.94,0,0,1,.68-.37,29.53,29.53,0,0,0,6.15-1.48,5.63,5.63,0,0,1,1.31-.34h.17c.61,0,.91.36.91,1.08V35.64a15.48,15.48,0,0,0,.11,2.16,2,2,0,0,0,.74,1.2,3.38,3.38,0,0,0,2.11.51h.34a1.19,1.19,0,0,1,.69.17,1.27,1.27,0,0,1,.28.86,1.39,1.39,0,0,1-.23.79.76.76,0,0,1-.68.35c-2.2-.12-4.19-.17-6-.17s-3.68.05-5.92.17A.77.77,0,0,1,172.39,41.33ZM176,7.43A3.23,3.23,0,0,1,174.92,5a2.94,2.94,0,0,1,1.31-2.33,4.7,4.7,0,0,1,3-1,3,3,0,0,1,2.33,1,3.59,3.59,0,0,1,.91,2.53,3,3,0,0,1-1.08,2.34,3.88,3.88,0,0,1-2.67,1A3.82,3.82,0,0,1,176,7.43Z"/><path class="cls-1" d="M188.7,40.59a4.94,4.94,0,0,1-2.85-4.49,3.66,3.66,0,0,1,1-2.68,3.44,3.44,0,0,1,2.59-1,2.71,2.71,0,0,1,1.62.51c.47.34.71.61.71.8a6.48,6.48,0,0,1-.65.74,2.66,2.66,0,0,0-.66,1.93A3.07,3.07,0,0,0,192,39.09a8.49,8.49,0,0,0,4.52,1,6.75,6.75,0,0,0,4.19-1.16,3.93,3.93,0,0,0,1.51-3.28,3.27,3.27,0,0,0-.86-2.33,5.88,5.88,0,0,0-2.13-1.43c-.85-.34-2-.74-3.56-1.19a32.25,32.25,0,0,1-4.55-1.6,7.84,7.84,0,0,1-3-2.39,6.49,6.49,0,0,1-1.25-4.15,6,6,0,0,1,1.48-4.1,9,9,0,0,1,3.84-2.57,14.72,14.72,0,0,1,5-.85A11.61,11.61,0,0,1,203,16.45a4.4,4.4,0,0,1,2.47,4,3.85,3.85,0,0,1-.94,2.62,3.11,3.11,0,0,1-2.47,1.08,2.74,2.74,0,0,1-1.63-.51c-.47-.34-.71-.61-.71-.8,0,0,.15-.19.46-.45a5,5,0,0,0,.82-.94,2.19,2.19,0,0,0,.37-1.28,2.91,2.91,0,0,0-1.53-2.4,6.4,6.4,0,0,0-3.36-.85,7,7,0,0,0-3.79,1,3.08,3.08,0,0,0-1.62,2.76,4.24,4.24,0,0,0,.68,2.53,4.69,4.69,0,0,0,2,1.51c.91.38,2.35.89,4.33,1.54A36.72,36.72,0,0,1,202.87,28a7,7,0,0,1,2.71,2.22,6.22,6.22,0,0,1,1,3.67,7.11,7.11,0,0,1-1.37,4.24,8.9,8.9,0,0,1-3.76,3,13.16,13.16,0,0,1-5.35,1A15,15,0,0,1,188.7,40.59Z"/><path class="cls-1" d="M215.23,40.34A13.34,13.34,0,0,1,208.85,29a13.61,13.61,0,0,1,7.06-12.27A12.83,12.83,0,0,1,222.12,15,13,13,0,0,1,229,16.88a13.36,13.36,0,0,1,6.37,11.36,13.47,13.47,0,0,1-2,7.43,13.93,13.93,0,0,1-5.09,4.84,12.73,12.73,0,0,1-6.15,1.68A12.94,12.94,0,0,1,215.23,40.34Zm12.55-3.56a17.77,17.77,0,0,0,1.8-8.54,15.5,15.5,0,0,0-1.85-8,6.11,6.11,0,0,0-5.61-3.1,6,6,0,0,0-5.7,3.24,17.85,17.85,0,0,0-1.76,8.49,16,16,0,0,0,1.82,8.05,6.06,6.06,0,0,0,5.64,3.16A6,6,0,0,0,227.78,36.78Z"/><path class="cls-1" d="M236,41.33a1.26,1.26,0,0,1-.25-.79c0-.5.15-.79.34-.88a2.41,2.41,0,0,1,1-.15,3.38,3.38,0,0,0,2.11-.51,1.78,1.78,0,0,0,.71-1.2,18.26,18.26,0,0,0,.09-2.16v-13a18.49,18.49,0,0,0-.09-2.16,1.8,1.8,0,0,0-.71-1.2,3.38,3.38,0,0,0-2.11-.51,2,2,0,0,1-1-.2c-.23-.13-.34-.44-.34-.94a1.05,1.05,0,0,1,.23-.65.92.92,0,0,1,.68-.37,30.16,30.16,0,0,0,6.09-1.48,11.62,11.62,0,0,1,1.31-.34h.17c.61,0,.91.36.91,1.08v3.59h.17c1.1-1,2-1.82,2.68-2.37a9.4,9.4,0,0,1,2.65-1.42,11.06,11.06,0,0,1,3.84-.6,8.19,8.19,0,0,1,6.15,2.34,8.4,8.4,0,0,1,2.28,6.14V35.64A14,14,0,0,0,263,37.8a1.94,1.94,0,0,0,.74,1.2,3.38,3.38,0,0,0,2.11.51h.34a1.15,1.15,0,0,1,.68.17,1.38,1.38,0,0,1,0,1.65.79.79,0,0,1-.65.35c-2.21-.12-4.2-.17-6-.17s-3.68.05-5.92.17a.79.79,0,0,1-.66-.35,1.26,1.26,0,0,1-.25-.79c0-.5.14-.79.31-.88a2.19,2.19,0,0,1,1-.15,3.38,3.38,0,0,0,2.11-.51,1.94,1.94,0,0,0,.74-1.2,13.74,13.74,0,0,0,.12-2.16V23.57a5,5,0,0,0-1.66-4,5.73,5.73,0,0,0-3.81-1.4,7.81,7.81,0,0,0-4.5,1.28,7.54,7.54,0,0,0-2.56,2.65V35.64a15.48,15.48,0,0,0,.11,2.16,2,2,0,0,0,.74,1.2,3.38,3.38,0,0,0,2.11.51h.34a1.13,1.13,0,0,1,.68.17c.16.12.25.4.29.86a1.39,1.39,0,0,1-.23.79.76.76,0,0,1-.68.35c-2.2-.12-4.2-.17-6-.17s-3.68.05-5.92.17A.8.8,0,0,1,236,41.33Z"/><path class="cls-1" d="M146.48,71.18c-.16-.38-.68-1.75-1.57-4.1s-1.74-4.33-2.53-5.92a10,10,0,0,0-1.83-3,4.31,4.31,0,0,0-2.5-1,3.48,3.48,0,0,0-.63-.12.68.68,0,0,1-.57-.28,2.09,2.09,0,0,1-.11-.8c0-.45.12-.74.37-.85a2.4,2.4,0,0,1,.91-.2l.71,0a9.87,9.87,0,0,1,5.47,1,8.56,8.56,0,0,1,3.3,4.07c0,.07.78,1.9,2.22,5.46q2.63,6.66,3.76,9.06h.17l5.64-14.92a5.66,5.66,0,0,0,.28-1.37.84.84,0,0,0-.57-.85,5.54,5.54,0,0,0-1.88-.23h-.34a1,1,0,0,1-.65-.17c-.14-.11-.22-.4-.26-.85a1.64,1.64,0,0,1,.2-.77.63.63,0,0,1,.6-.37c2.16.11,4,.17,5.52.17.61,0,1.78,0,3.53-.12l1.2,0a.69.69,0,0,1,.62.37,1.47,1.47,0,0,1,.23.77c0,.45-.13.74-.29.85a1.15,1.15,0,0,1-.68.17,6.38,6.38,0,0,0-3.24.68,5.29,5.29,0,0,0-1.94,2.68q-1.31,3.3-4.9,12.13T153,81.37h-2.39Q149.14,78.17,146.48,71.18Z"/><path class="cls-1" d="M168.24,79.55a6.93,6.93,0,0,1,.28-10.22,12.77,12.77,0,0,1,5.7-2.34,82.61,82.61,0,0,1,8.54-.82v-4.5a5.89,5.89,0,0,0-1.4-4.24c-.93-1-2.42-1.45-4.47-1.45a4.68,4.68,0,0,0-3.07,1.08,3.58,3.58,0,0,0-1.31,2.9,2.5,2.5,0,0,0,.43,1.51,4.91,4.91,0,0,0,.91,1,2.28,2.28,0,0,1,.48.45c0,.23-.24.52-.71.89a2.8,2.8,0,0,1-1.74.54,3.25,3.25,0,0,1-2.7-1.26,4.57,4.57,0,0,1-1-3,4.68,4.68,0,0,1,2.65-4.38,13.34,13.34,0,0,1,6.41-1.42,14.57,14.57,0,0,1,7.6,1.76q2.92,1.77,2.93,6.55V75.9a4.59,4.59,0,0,0,.74,2.28,2.42,2.42,0,0,0,2.22,1.08,1,1,0,0,1,.65.17,1,1,0,0,1,.2.74c0,.46-.35.79-1.05,1a7.24,7.24,0,0,1-2.08.31,6.16,6.16,0,0,1-3.81-1.25,4.62,4.62,0,0,1-1.88-3.36,8,8,0,0,1-3.68,3.42,12,12,0,0,1-5.32,1.19A7.82,7.82,0,0,1,168.24,79.55Zm10.93-2.11a7.16,7.16,0,0,0,2.62-2.65,7.38,7.38,0,0,0,1-3.73V67.82c-4,.3-6.8,1-8.43,1.93a5.19,5.19,0,0,0-2.45,4.79c0,2.58,1.24,3.87,3.7,3.87A6.94,6.94,0,0,0,179.17,77.44Z"/><path class="cls-1" d="M192.92,80.63a1.29,1.29,0,0,1-.25-.8c0-.49.15-.78.34-.88a2.63,2.63,0,0,1,1-.14,3.38,3.38,0,0,0,2.11-.51,1.84,1.84,0,0,0,.71-1.2,18.49,18.49,0,0,0,.09-2.16v-13a18.58,18.58,0,0,0-.09-2.17,1.82,1.82,0,0,0-.71-1.19A3.38,3.38,0,0,0,194,58a2.11,2.11,0,0,1-1-.2c-.23-.14-.34-.45-.34-.94a1.11,1.11,0,0,1,.22-.66,1,1,0,0,1,.69-.37,30.51,30.51,0,0,0,6.09-1.48c.64-.19,1.08-.3,1.31-.34h.17c.61,0,.91.36.91,1.08v3.59h.17c1.1-1,2-1.81,2.68-2.36a9.34,9.34,0,0,1,2.64-1.43,11.17,11.17,0,0,1,3.85-.59,8.19,8.19,0,0,1,6.15,2.33,8.47,8.47,0,0,1,2.27,6.15V74.94a13.91,13.91,0,0,0,.12,2.16,1.93,1.93,0,0,0,.74,1.2,3.35,3.35,0,0,0,2.1.51h.35a1.08,1.08,0,0,1,.68.17,1.19,1.19,0,0,1,.28.85,1.29,1.29,0,0,1-.25.8.78.78,0,0,1-.66.34q-3.3-.16-6-.17c-1.7,0-3.68.06-5.92.17a.78.78,0,0,1-.65-.34,1.3,1.3,0,0,1-.26-.8c0-.49.14-.78.32-.88a2.39,2.39,0,0,1,1-.14,3.38,3.38,0,0,0,2.11-.51,2,2,0,0,0,.74-1.2,15.68,15.68,0,0,0,.11-2.16V62.87a5,5,0,0,0-1.65-4,5.72,5.72,0,0,0-3.81-1.39,7.74,7.74,0,0,0-4.5,1.28,7.29,7.29,0,0,0-2.56,2.65V74.94a14.22,14.22,0,0,0,.11,2.16,2,2,0,0,0,.74,1.2,3.38,3.38,0,0,0,2.11.51h.34a1.08,1.08,0,0,1,.68.17,1.23,1.23,0,0,1,.29.85,1.42,1.42,0,0,1-.23.8.76.76,0,0,1-.68.34q-3.31-.16-6-.17t-5.92.17A.78.78,0,0,1,192.92,80.63Z"/><path class="cls-1" d="M230.13,79.75a12.62,12.62,0,0,1-4.38-4.84,14.66,14.66,0,0,1-1.66-7,13.71,13.71,0,0,1,1.71-6.67,13.46,13.46,0,0,1,4.73-5,12.46,12.46,0,0,1,6.72-1.87,15.27,15.27,0,0,1,3.53.42,12.28,12.28,0,0,1,3.07,1.17H244V53.3c0-1,0-1.71-.08-2.17a1.83,1.83,0,0,0-.72-1.19,3.35,3.35,0,0,0-2.1-.51,2.13,2.13,0,0,1-1-.2c-.22-.14-.34-.45-.34-.94a1.13,1.13,0,0,1,.23-.66.94.94,0,0,1,.68-.37,28.91,28.91,0,0,0,6.15-1.48,6.19,6.19,0,0,1,1.31-.34h.17c.61,0,.91.36.91,1.08v29q0,3.36,4.44,3.36c.65,0,1,.31,1,.91s-.32.86-1,1l-9,.63c-.27,0-.42-.09-.46-.26a5.62,5.62,0,0,1,0-.88V78h-.17a11.7,11.7,0,0,1-3.62,2.51,10.27,10.27,0,0,1-4.24,1A10.87,10.87,0,0,1,230.13,79.75Zm11.24-1.88A11,11,0,0,0,244,75.79v-15a6.49,6.49,0,0,0-2.13-3,6.12,6.12,0,0,0-4.07-1.36,6.38,6.38,0,0,0-4,1.39A9.26,9.26,0,0,0,231,61.84a17.75,17.75,0,0,0-1,6.32A12.84,12.84,0,0,0,232,75.59a6.76,6.76,0,0,0,6,3A7,7,0,0,0,241.37,77.87Z"/><path class="cls-1" d="M253.7,80.63a1.3,1.3,0,0,1-.26-.8c0-.49.16-.78.35-.88a2.59,2.59,0,0,1,1-.14,3.38,3.38,0,0,0,2.11-.51,1.88,1.88,0,0,0,.71-1.2,19,19,0,0,0,.08-2.16v-13a19.13,19.13,0,0,0-.08-2.17,1.86,1.86,0,0,0-.71-1.19,3.38,3.38,0,0,0-2.11-.51,2.06,2.06,0,0,1-1-.2c-.23-.14-.35-.45-.35-.94a1.13,1.13,0,0,1,.23-.66.94.94,0,0,1,.68-.37,30.45,30.45,0,0,0,6.1-1.48c.64-.19,1.08-.3,1.31-.34h.17c.6,0,.91.36.91,1.08v3.53H263a19.2,19.2,0,0,1,4-3.16,7.72,7.72,0,0,1,3.7-1.16,3.62,3.62,0,0,1,3,1.39,5,5,0,0,1,1.11,3.22,4.48,4.48,0,0,1-1,2.84A3.17,3.17,0,0,1,271.21,63a2.77,2.77,0,0,1-1.4-.35c-.4-.22-.61-.41-.65-.56a6.71,6.71,0,0,1,.57-.72,2.06,2.06,0,0,0,.51-1.39,2.45,2.45,0,0,0-.54-1.65,1.82,1.82,0,0,0-1.45-.63,4.89,4.89,0,0,0-2.45.94A17.62,17.62,0,0,0,262.89,61v13.9A13.91,13.91,0,0,0,263,77.1a1.93,1.93,0,0,0,.74,1.2,3.38,3.38,0,0,0,2.11.51h.34a1.08,1.08,0,0,1,.68.17,1.19,1.19,0,0,1,.28.85,1.41,1.41,0,0,1-.22.8.76.76,0,0,1-.69.34q-3.3-.16-6-.17t-5.93.17A.78.78,0,0,1,253.7,80.63Z"/><path class="cls-1" d="M282.76,79.63a13,13,0,0,1-4.7-4.89,13.2,13.2,0,0,1-1.68-6.47A13.58,13.58,0,0,1,283.44,56a13,13,0,0,1,13.1.17,13,13,0,0,1,4.69,4.89,13.19,13.19,0,0,1,1.68,6.46,13.44,13.44,0,0,1-2,7.43,14,14,0,0,1-5.1,4.84,12.66,12.66,0,0,1-6.14,1.68A12.83,12.83,0,0,1,282.76,79.63Zm12.55-3.56a17.75,17.75,0,0,0,1.79-8.54,15.41,15.41,0,0,0-1.85-8,6.1,6.1,0,0,0-5.6-3.1,6,6,0,0,0-5.7,3.25,17.78,17.78,0,0,0-1.76,8.48A15.92,15.92,0,0,0,284,76.22a6.07,6.07,0,0,0,5.64,3.16A6,6,0,0,0,295.31,76.07Z"/><path class="cls-1" d="M304.38,80.63a1.29,1.29,0,0,1-.25-.8c0-.49.14-.78.31-.88a2.41,2.41,0,0,1,1-.14,3.35,3.35,0,0,0,2.1-.51,1.93,1.93,0,0,0,.74-1.2,13.91,13.91,0,0,0,.12-2.16v-13a18.58,18.58,0,0,0-.09-2.17,1.78,1.78,0,0,0-.71-1.19,3.38,3.38,0,0,0-2.11-.51,2.11,2.11,0,0,1-1-.2c-.23-.14-.34-.45-.34-.94a1.06,1.06,0,0,1,.23-.66.92.92,0,0,1,.68-.37,30.16,30.16,0,0,0,6.09-1.48c.65-.19,1.08-.3,1.31-.34h.17c.61,0,.91.36.91,1.08v3.59h.17L315.4,57a9.23,9.23,0,0,1,3.1-2,10.68,10.68,0,0,1,4-.68,9.29,9.29,0,0,1,4.73,1.16,7.25,7.25,0,0,1,3,3.22h.11a22.47,22.47,0,0,1,4.24-3.25,10.67,10.67,0,0,1,5.21-1.13,8.19,8.19,0,0,1,6.15,2.33,8.44,8.44,0,0,1,2.28,6.15V74.94a15.68,15.68,0,0,0,.11,2.16,2,2,0,0,0,.74,1.2,3.38,3.38,0,0,0,2.11.51h.34a1.08,1.08,0,0,1,.68.17c.16.11.25.4.29.85a1.3,1.3,0,0,1-.26.8.78.78,0,0,1-.65.34c-2.2-.11-4.2-.17-6-.17s-3.68.06-5.92.17a.75.75,0,0,1-.68-.34,1.35,1.35,0,0,1-.23-.8c0-.49.14-.78.31-.88a2.41,2.41,0,0,1,1-.14,3.35,3.35,0,0,0,2.1-.51,1.93,1.93,0,0,0,.74-1.2,13.91,13.91,0,0,0,.12-2.16V62.87a5,5,0,0,0-1.65-4,5.75,5.75,0,0,0-3.82-1.39,6.85,6.85,0,0,0-4.27,1.25,7.46,7.46,0,0,0-2.33,2.68V74.94c0,.22,0,.74,0,1.53a2.14,2.14,0,0,0,.63,1.77,3.19,3.19,0,0,0,2.13.57H334a1.07,1.07,0,0,1,.71.17c.14.11.22.4.26.85a1.42,1.42,0,0,1-.23.8A.76.76,0,0,1,334,81c-2.24-.11-4.18-.17-5.81-.17s-3.45.06-5.69.17a.75.75,0,0,1-.68-.34,1.35,1.35,0,0,1-.23-.8c0-.49.14-.78.31-.88a2.41,2.41,0,0,1,1-.14c1.25,0,2-.26,2.33-.77a3.23,3.23,0,0,0,.43-1.77c0-.66,0-1.11,0-1.33V62.87a5,5,0,0,0-1.62-4,5.65,5.65,0,0,0-3.79-1.39A6.83,6.83,0,0,0,316,58.71a8.1,8.1,0,0,0-2.39,2.68V74.94a15.68,15.68,0,0,0,.11,2.16,2,2,0,0,0,.74,1.2,3.38,3.38,0,0,0,2.11.51h.34a1.07,1.07,0,0,1,.68.17c.16.11.25.4.29.85a1.42,1.42,0,0,1-.23.8.76.76,0,0,1-.68.34c-2.2-.11-4.2-.17-6-.17s-3.68.06-5.92.17A.79.79,0,0,1,304.38,80.63Z"/><path class="cls-1" d="M351.27,80.63a1.29,1.29,0,0,1-.25-.8c0-.49.14-.78.31-.88a2.41,2.41,0,0,1,1-.14,3.35,3.35,0,0,0,2.1-.51,1.93,1.93,0,0,0,.74-1.2,13.91,13.91,0,0,0,.12-2.16v-13a18.58,18.58,0,0,0-.09-2.17,1.78,1.78,0,0,0-.71-1.19,3.38,3.38,0,0,0-2.11-.51,2.11,2.11,0,0,1-1-.2c-.23-.14-.34-.45-.34-.94a1.06,1.06,0,0,1,.23-.66.92.92,0,0,1,.68-.37A30.16,30.16,0,0,0,358,54.38c.65-.19,1.08-.3,1.31-.34h.17c.61,0,.91.36.91,1.08v3.59h.17L362.29,57a9.23,9.23,0,0,1,3.1-2,10.68,10.68,0,0,1,4-.68,9.29,9.29,0,0,1,4.73,1.16,7.31,7.31,0,0,1,3,3.22h.11a22.16,22.16,0,0,1,4.24-3.25,10.67,10.67,0,0,1,5.21-1.13,8.19,8.19,0,0,1,6.15,2.33A8.44,8.44,0,0,1,395,62.81V74.94a15.68,15.68,0,0,0,.11,2.16,2,2,0,0,0,.74,1.2,3.38,3.38,0,0,0,2.11.51h.34A1.08,1.08,0,0,1,399,79c.16.11.25.4.29.85a1.3,1.3,0,0,1-.26.8.78.78,0,0,1-.65.34c-2.2-.11-4.2-.17-6-.17s-3.68.06-5.92.17a.75.75,0,0,1-.68-.34,1.35,1.35,0,0,1-.23-.8c0-.49.14-.78.31-.88a2.41,2.41,0,0,1,1-.14,3.35,3.35,0,0,0,2.1-.51,1.93,1.93,0,0,0,.74-1.2,13.91,13.91,0,0,0,.12-2.16V62.87a5,5,0,0,0-1.65-4,5.75,5.75,0,0,0-3.82-1.39,6.85,6.85,0,0,0-4.27,1.25,7.46,7.46,0,0,0-2.33,2.68V74.94c0,.22,0,.74,0,1.53a2.17,2.17,0,0,0,.62,1.77,3.24,3.24,0,0,0,2.14.57h.34a1.07,1.07,0,0,1,.71.17c.14.11.22.4.26.85a1.42,1.42,0,0,1-.23.8.76.76,0,0,1-.68.34c-2.24-.11-4.18-.17-5.81-.17s-3.45.06-5.69.17a.77.77,0,0,1-.69-.34,1.41,1.41,0,0,1-.22-.8c0-.49.14-.78.31-.88a2.41,2.41,0,0,1,1-.14c1.25,0,2-.26,2.33-.77a3.23,3.23,0,0,0,.43-1.77c0-.66,0-1.11,0-1.33V62.87a5,5,0,0,0-1.62-4,5.63,5.63,0,0,0-3.79-1.39,6.83,6.83,0,0,0-4.27,1.25,8.1,8.1,0,0,0-2.39,2.68V74.94a15.68,15.68,0,0,0,.11,2.16,2,2,0,0,0,.74,1.2,3.38,3.38,0,0,0,2.11.51h.34a1.08,1.08,0,0,1,.68.17c.16.11.25.4.29.85a1.42,1.42,0,0,1-.23.8.76.76,0,0,1-.68.34c-2.2-.11-4.2-.17-6-.17s-3.68.06-5.92.17A.78.78,0,0,1,351.27,80.63Z"/><path class="cls-1" d="M405.36,79.66a11.68,11.68,0,0,1-4.52-5,15.48,15.48,0,0,1-1.54-6.95,14.21,14.21,0,0,1,1.56-6.46,13.08,13.08,0,0,1,4.47-5A11.75,11.75,0,0,1,412,54.33q5.07,0,7.8,2.59a10.51,10.51,0,0,1,3.14,7,2.86,2.86,0,0,1-1,2.56,5.29,5.29,0,0,1-3,.69H405.1c0,3.53.74,6.33,2.2,8.39s3.73,3.11,6.8,3.11a7.73,7.73,0,0,0,4.16-1.06A10.36,10.36,0,0,0,421.5,74a.86.86,0,0,1,.57-.28,1.1,1.1,0,0,1,.69.23,1.13,1.13,0,0,1,.56,1,.94.94,0,0,1-.11.52,12.91,12.91,0,0,1-4.47,4.41,12,12,0,0,1-6.12,1.56A13.63,13.63,0,0,1,405.36,79.66Zm9-14.69c1.93,0,3-.79,3.07-2.39A7,7,0,0,0,416,58.14,4.85,4.85,0,0,0,412,56.32a5.92,5.92,0,0,0-4.78,2.3A10.87,10.87,0,0,0,405.1,65Z"/><path class="cls-1" d="M120.56,40.71,96,81.48H70.79a.65.65,0,0,1-.65-.64V74.73a.64.64,0,0,1,.65-.65H91.86l19.78-32.91.25-.43L91.41,7.4H71.77L53.9,81.48H23.76L0,40.11,24.27,0H49.52a.64.64,0,0,1,.64.64V6.76a.64.64,0,0,1-.64.64H28.45L8.86,39.78l-.27.4L27.81,73.7l.25.38h20L65.94,0h29.6Z"/><path class="cls-1" d="M97.89,40.49,85.48,60.83a.65.65,0,0,1-.55.31h-5a.64.64,0,0,1-.55-1L90.84,41.35l.52-.9-12-19.66a.61.61,0,0,1,0-.65.64.64,0,0,1,.56-.33h5a.63.63,0,0,1,.55.32Z"/><path class="cls-1" d="M40.22,60.16a.66.66,0,0,1,0,.66.63.63,0,0,1-.56.32h-5a.65.65,0,0,1-.56-.31L21.67,40.49,34.09,20.13a.64.64,0,0,1,.56-.32h5a.67.67,0,0,1,.57.33.64.64,0,0,1,0,.65L28.8,39.54l-.62.9Z"/></g></g></svg>