<svg xmlns="http://www.w3.org/2000/svg" width="1310.336" height="780.222" viewBox="0 0 1310.336 780.222"><g transform="translate(0 0.222)"><rect width="1310" height="780" fill="#fff"/><line y2="779" transform="translate(1240)" fill="none" stroke="#49bfc7" stroke-width="0.5" stroke-dasharray="2 5" opacity="0.35"/><line y2="779" transform="translate(970)" fill="none" stroke="#49bfc7" stroke-width="0.5" stroke-dasharray="2 5" opacity="0.35"/><line y2="779" transform="translate(670)" fill="none" stroke="#49bfc7" stroke-width="0.5" stroke-dasharray="2 5" opacity="0.35"/><line y2="779" transform="translate(370)" fill="none" stroke="#49bfc7" stroke-width="0.5" stroke-dasharray="2 5" opacity="0.35"/><line y2="779" transform="translate(70)" fill="none" stroke="#49bfc7" stroke-width="0.5" stroke-dasharray="2 5" opacity="0.35"/><g transform="translate(-0.001)" opacity="0.18"><path d="M5942-314S5809.3-43.815,6157.239-113.4" transform="translate(-4847 314)" fill="none" stroke="#49bfc7" stroke-width="1"/><path d="M5949.245-314S5777.854,32.634,6227.239-56.644" transform="translate(-4917.239 314)" fill="none" stroke="#49bfc7" stroke-width="1"/><path d="M5954.208-314S5756.311,86.717,6275.2-16.49" transform="translate(-4965.196 314)" fill="none" stroke="#49bfc7" stroke-width="1"/><path d="M5958.24-314s-219.43,451.046,355.914,334.876" transform="translate(-5004.153 314)" fill="none" stroke="#49bfc7" stroke-width="1"/><path d="M5961.139-314S5726.233,175.27,6342.154,49.256" transform="translate(-5032.153 314)" fill="none" stroke="#49bfc7" stroke-width="1"/></g><g transform="translate(-9414.892 -2802.159) rotate(22)" opacity="0.18"><g transform="translate(10566 -588.084)" fill="none" stroke="#49bfc7" stroke-width="1"><ellipse cx="91.67" cy="48.127" rx="91.67" ry="48.127" stroke="none"/><ellipse cx="91.67" cy="48.127" rx="91.17" ry="47.627" fill="none"/></g><g transform="translate(10597.32 -556.764)" fill="none" stroke="#49bfc7" stroke-width="1"><ellipse cx="60.349" cy="16.806" rx="60.349" ry="16.806" stroke="none"/><ellipse cx="60.349" cy="16.806" rx="59.849" ry="16.306" fill="none"/></g><g transform="translate(10629.405 -568.223)" fill="none" stroke="#49bfc7" stroke-width="1"><circle cx="28.265" cy="28.265" r="28.265" stroke="none"/><circle cx="28.265" cy="28.265" r="27.765" fill="none"/></g></g></g></svg>