<?xml version="1.0" standalone="no"?>
<!DOCTYPE svg PUBLIC "-//W3C//DTD SVG 20010904//EN"
 "http://www.w3.org/TR/2001/REC-SVG-20010904/DTD/svg10.dtd">
<svg version="1.0" xmlns="http://www.w3.org/2000/svg"
 width="248.000000pt" height="248.000000pt" viewBox="0 0 248.000000 248.000000"
 preserveAspectRatio="xMidYMid meet">
<metadata>
Created by potrace 1.14, written by Peter Selinger 2001-2017
</metadata>
<g transform="translate(0.000000,248.000000) scale(0.100000,-0.100000)"
fill="#000000" stroke="none">
<path d="M476 2028 c-54 -86 -466 -771 -466 -776 0 -4 105 -189 233 -412 l233
-405 305 -3 305 -2 123 512 c68 282 148 615 178 741 l55 227 197 0 196 -1 200
-326 c110 -180 201 -334 202 -343 1 -8 -87 -161 -195 -340 l-197 -325 -217 -3
-218 -2 0 -70 0 -70 262 2 262 3 242 403 242 403 -247 402 -248 402 -299 3
-299 2 -124 -512 c-68 -282 -148 -615 -178 -741 l-55 -227 -201 2 -201 3 -194
338 -193 338 198 327 198 327 218 3 217 2 0 70 0 70 -260 0 c-258 0 -260 0
-274 -22z"/>
<path d="M570 1458 c-68 -112 -123 -207 -123 -213 0 -6 55 -101 123 -213 l123
-202 59 0 c37 0 58 4 58 11 0 7 -52 98 -117 203 -64 105 -116 196 -116 201 0
6 52 96 116 201 65 105 117 196 117 203 0 7 -21 11 -58 11 l-59 0 -123 -202z"/>
<path d="M1596 1652 c-3 -5 47 -93 111 -197 63 -104 117 -195 120 -202 3 -7
-50 -101 -116 -210 -66 -108 -117 -201 -112 -206 4 -4 32 -7 62 -5 l53 3 123
200 c67 110 123 205 122 210 0 6 -55 100 -122 210 l-122 200 -57 3 c-31 2 -59
-1 -62 -6z"/>
</g>
</svg>
